<?xml version="1.0" standalone="no"?>
<!DOCTYPE svg PUBLIC "-//W3C//DTD SVG 20010904//EN"
 "http://www.w3.org/TR/2001/REC-SVG-20010904/DTD/svg10.dtd">
<svg version="1.0" xmlns="http://www.w3.org/2000/svg"
 width="637.000000pt" height="637.000000pt" viewBox="0 0 637.000000 637.000000"
 preserveAspectRatio="xMidYMid meet">
<metadata>
Created by potrace 1.11, written by Peter Selinger 2001-2013
</metadata>
<g transform="translate(0.000000,637.000000) scale(0.100000,-0.100000)"
fill="#000000" stroke="none">
<path d="M2850 5569 c-585 -48 -1024 -213 -1272 -477 -118 -126 -203 -300
-233 -481 -40 -241 -53 -664 -31 -1064 23 -422 26 -382 -34 -408 -55 -24 -120
-88 -147 -146 -26 -57 -23 -258 6 -377 59 -246 174 -377 343 -393 77 -7 126 7
174 49 51 45 64 34 64 -59 1 -137 19 -316 40 -392 36 -129 65 -179 160 -271
114 -112 207 -166 476 -274 346 -140 337 -135 352 -189 27 -89 67 -121 240
-188 13 -5 22 -17 22 -30 0 -20 1 -20 31 5 28 24 38 26 127 26 53 0 102 -4
108 -8 7 -4 17 -26 24 -49 15 -48 24 -48 34 -2 11 54 20 59 115 59 l87 0 34
-37 c33 -38 52 -33 30 8 -14 26 -8 32 47 48 55 15 134 89 176 166 27 50 42 65
87 89 107 56 408 248 487 311 91 71 203 197 238 265 59 116 85 257 94 505 l6
180 25 -4 c14 -2 66 -4 115 -5 77 -1 97 3 138 24 151 76 249 299 251 570 1
118 -1 128 -27 182 -41 84 -130 146 -233 163 l-42 6 -5 427 c-4 413 -23 755
-48 882 -88 448 -502 748 -1195 865 -131 23 -186 26 -449 30 -165 2 -352 -1
-415 -6z m771 -1219 c17 -10 201 -57 349 -90 52 -12 135 -25 185 -28 l89 -7 7
-35 c4 -19 17 -42 28 -51 11 -9 70 -26 132 -37 65 -13 119 -28 130 -38 32 -29
39 -82 39 -312 l0 -223 61 -111 60 -111 -34 -36 c-34 -35 -67 -90 -67 -111 0
-24 35 -6 76 39 71 79 116 96 259 95 160 0 213 -22 256 -106 40 -79 33 -273
-17 -447 -56 -195 -150 -281 -304 -281 -73 0 -115 14 -156 52 l-22 19 -5 -248
c-6 -330 -27 -416 -142 -589 -98 -147 -236 -255 -509 -400 -57 -30 -108 -54
-114 -54 -16 0 -15 16 3 78 19 62 55 107 104 129 46 20 20 29 -34 11 -56 -19
-99 -80 -131 -186 -67 -227 -113 -288 -235 -318 -148 -35 -664 -28 -738 10
-61 33 -99 94 -146 236 -46 143 -84 201 -149 231 -62 28 -90 23 -34 -6 42 -22
52 -34 89 -110 23 -47 39 -88 36 -91 -23 -23 -624 253 -710 324 -101 86 -154
170 -189 300 -16 64 -21 122 -26 342 l-7 265 -42 -68 c-55 -88 -87 -107 -179
-107 -190 0 -295 109 -349 362 -25 117 -30 246 -11 310 33 114 119 155 303
146 119 -6 154 -20 221 -87 79 -79 109 -66 51 22 -36 54 -75 90 -133 119 -22
11 -42 21 -43 23 -2 1 36 77 84 170 l86 168 -6 200 c-7 211 1 283 32 311 10 9
65 25 122 36 57 11 117 25 132 31 42 18 57 56 57 149 0 59 3 80 13 80 7 0 40
-16 73 -36 80 -50 349 -179 454 -219 211 -80 403 -114 680 -121 l205 -5 -115
39 c-63 22 -146 53 -185 69 -109 45 -354 196 -405 249 -25 26 -38 44 -29 41 9
-3 50 -15 90 -27 41 -12 112 -35 159 -52 47 -16 149 -45 227 -64 79 -19 154
-39 167 -44 30 -11 377 -70 414 -70 22 0 12 10 -58 56 -75 50 -270 227 -270
246 0 7 93 -18 121 -32z"/>
<path d="M4829 3137 c-19 -12 -47 -45 -62 -72 -40 -72 -35 -139 16 -215 59
-88 46 -132 -39 -127 -34 2 -39 -1 -42 -22 -7 -45 45 -54 114 -21 77 38 82 99
16 197 -52 76 -56 93 -36 142 23 59 56 81 118 81 89 0 125 -50 90 -124 -13
-26 -15 -39 -7 -47 37 -37 87 92 67 169 -16 59 -168 84 -235 39z"/>
<path d="M2504 3119 c-32 -16 -54 -62 -54 -114 0 -84 47 -135 125 -135 26 0
45 9 73 34 36 34 37 36 37 106 0 66 -2 74 -28 96 -22 19 -39 24 -80 23 -29 0
-61 -5 -73 -10z"/>
<path d="M3843 3120 c-32 -13 -63 -68 -63 -112 0 -79 53 -138 122 -138 74 1
118 54 118 143 0 51 -4 62 -29 88 -25 24 -37 29 -78 28 -26 0 -58 -4 -70 -9z"/>
<path d="M1385 2956 c-53 -20 -75 -49 -75 -99 0 -53 35 -127 61 -127 23 0 24
17 4 58 -30 59 4 111 78 119 50 6 100 -15 118 -48 37 -69 30 -104 -35 -199
-40 -57 -46 -101 -20 -138 21 -30 66 -52 108 -52 50 0 66 9 66 36 0 23 -3 24
-60 24 -56 0 -60 2 -66 26 -7 27 3 51 52 129 48 77 17 195 -66 257 -35 25
-115 32 -165 14z"/>
<path d="M3760 2310 c0 -6 11 -16 25 -22 14 -6 25 -14 25 -18 0 -4 -82 -35
-182 -68 -246 -81 -347 -97 -580 -89 -169 6 -178 5 -178 -12 0 -27 21 -40 72
-47 25 -4 50 -9 56 -13 32 -20 67 -241 44 -278 -4 -6 -32 -13 -62 -15 -59 -3
-76 -22 -48 -55 11 -13 28 -15 108 -10 163 10 323 64 509 170 95 55 274 183
313 224 28 30 38 29 38 -3 0 -34 31 -29 41 6 32 117 -39 240 -139 240 -23 0
-42 -5 -42 -10z m105 -99 c-6 -5 -71 -46 -145 -91 -74 -45 -137 -84 -140 -87
-14 -14 146 54 220 93 l85 46 -45 -47 c-54 -56 -234 -177 -395 -266 -49 -27
-313 -119 -341 -119 -12 0 -14 14 -12 72 l3 71 150 37 c133 33 142 37 80 31
-38 -3 -108 -6 -153 -6 l-84 0 -18 48 -18 47 66 0 c144 1 240 18 444 81 111
34 218 70 237 80 38 19 82 26 66 10z"/>
<path d="M1927 1743 c-10 -10 -8 -52 3 -74 7 -13 21 -19 45 -19 29 0 35 4 45
35 9 28 9 39 0 50 -12 15 -81 21 -93 8z"/>
<path d="M4383 1733 c-18 -7 -16 -30 3 -37 35 -13 54 -7 54 19 0 19 -5 25 -22
24 -13 0 -29 -3 -35 -6z"/>
<path d="M4133 1620 c-26 -11 -31 -46 -10 -75 32 -43 103 16 78 64 -12 22 -32
25 -68 11z"/>
<path d="M2935 1600 c-10 -17 3 -28 43 -34 54 -8 116 6 120 27 3 15 -6 17 -77
17 -44 0 -83 -4 -86 -10z"/>
<path d="M2426 1509 c-18 -27 -11 -47 20 -55 25 -7 54 10 54 31 0 14 -32 45
-48 45 -6 0 -18 -10 -26 -21z"/>
<path d="M2160 1485 c0 -31 20 -41 50 -25 21 11 21 12 4 31 -25 28 -54 25 -54
-6z"/>
<path d="M3526 1331 c-11 -17 6 -41 29 -41 30 0 41 16 25 35 -14 17 -46 20
-54 6z"/>
<path d="M3060 1285 c0 -31 20 -41 50 -25 21 11 21 12 4 31 -25 28 -54 25 -54
-6z"/>
<path d="M3192 1048 c3 -25 33 -34 57 -19 21 13 -4 41 -36 41 -20 0 -24 -4
-21 -22z"/>
</g>
</svg>
